# xmcd
#
# Track frame offsets: 
#        150
#        6049
#        49112
#        98308
#        132477
#        159652
#        272660
#        294561
#
# Disc length: 4234 seconds
#
# Revision: 0
# Processed by: cddbd v1.5.2PL0 Copyright (c) Steve Scherf et al.
# Submitted via: ExactAudioCopy v0.95b4
#
DISCID=65108808
DTITLE=Yes  - Circus Of Heaven - Disc 1
DYEAR=1900
DGENRE=
TTITLE0=Opening
TTITLE1=Siberian Khatru
TTITLE2=Heart Of The Sunrise
TTITLE3=Future Times - Rejoice
TTITLE4=Circus Of Heaven
TTITLE5=Medley
TTITLE6=Don't Kill The Whale
TTITLE7=The Clap
EXTD=
EXTT0=
EXTT1=
EXTT2=
EXTT3=
EXTT4=
EXTT5=
EXTT6=
EXTT7=
PLAYORDER=
